<?xml version="1.0" encoding="UTF-8"?>
<svg id="Layer_1" data-name="Layer 1" xmlns="http://www.w3.org/2000/svg" viewBox="0 0 997.43 1232.15">
  <defs>
    <style>
      .cls-1 {
        fill: #0879fa;
      }

      .cls-2 {
        fill: #e8f0fc;
      }

      .cls-3 {
        fill: #fd8403;
      }

      .cls-4 {
        fill: #f9fcfc;
      }

      .cls-5 {
        fill: #061d58;
      }

      .cls-6 {
        fill: #05d59b;
      }
    </style>
  </defs>
  <path class="cls-1" d="M641.72,1199.1c1.8.3,4.01.84,6.09,1.22,17.78,3.2,36.44,7.68,53.87,12.53,6.09,1.7,34.94,10.07,37.59,13.57,2.41,3.18,1.55,4.8-2.07,5.13-154.68-27.97-313.94-28.27-467.75.37-3.38.63-11.67.23-8.56-4.8s56.37-19.06,65.5-21.1c97.11-21.65,217.27-23.52,315.33-6.92Z"/>
  <g>
    <path class="cls-5" d="M243.33,1052.9c18.41-32.67,68.26-42.02,94.43-13.41l.6-13.4h36.56c1.01,2.44.76,2.84,1.22,4.88-1.71,2.65-1.14,5.62-1.22,8.53-.04,1.62.02,3.25,0,4.87-.3,29.75-1.08,61.19-.05,90.82.11,3.29,2.23,8.72,1.27,11.52-.59,1.74-1.61,1.18-2.98,1.27-5.09.34-29.55.84-32.79-.23-4.01-1.32-.69-10.01-2.6-13.23-17.28,19.61-53.21,20.42-74.58,7.56-4.44-2.67-12.4-13.43-16.19-13.66l-6.09-9.75c-.09-6.71-3.66-11.28-4.87-17.06-1.87-8.91-1.54-19.09,0-28.02,1.24-7.18,3.77-14.43,7.31-20.71ZM338.6,1086.83c0-18.25-14.79-33.05-33.05-33.05s-33.05,14.79-33.05,33.05,14.79,33.05,33.05,33.05,33.05-14.79,33.05-33.05Z"/>
    <path class="cls-1" d="M502.83,1124.78c3.45-7.03,11.89-15.58,15.39-23.25,3.08-.49,13.78,8.11,17.89,10.07,13,6.23,53.2,14.58,57.6-5.03,2.68-11.92-7.86-15.56-16.85-18.66-27.77-9.57-72.21-11.89-71.46-52.54.94-51.23,70.85-56.07,106.7-38.74,4.06,1.96,14.94,7.36,13.29,12.43-.5,1.54-13.58,22.93-14.93,23.21-3.56.75-11.48-5.87-15.41-7.63-12.24-5.48-42.08-11.27-50.08,2.77-7.51,13.18,7.04,18.55,16.93,21.85,20.28,6.77,53.15,9.85,65.2,30.44,7.35,12.55,5.26,35.66-3.12,47.44-24.46,34.38-92.38,26.1-122.27,2.35-.32-.47.74-3.94,1.12-4.71Z"/>
    <path class="cls-1" d="M770.87,1062.64c.62,1.49,3.42,10.73,3.66,12.18.12.76-.07,1.64,0,2.44,1.13,12.37.15,18.19-2.44,29.24-.15.66.05,1.64,0,2.44-10.83,31.01-47.01,46.21-76.8,32.33l-13.35-9.18v46.91c0,1.33-2.98,1.75-4.2,1.89-9.21,1.08-20.45-.92-29.91-.06.02-.4-.01-.81,0-1.22s0-.81,0-1.22c.93-47.23-.66-94.69-.06-142-.27-1.25.88-4.2,1.89-4.2h32.29c.61,0-.93,10.72.6,12.18,25.87-28.26,74.3-15.73,88.34,18.28ZM740.75,1088.22c0-16.3-13.21-29.51-29.51-29.51s-29.51,13.21-29.51,29.51,13.21,29.51,29.51,29.51,29.51-13.21,29.51-29.51Z"/>
    <path class="cls-1" d="M790.36,991.98c4.9.8,33.44-1.17,35.12.27.57.49.07,2.05.21,2.17-.64,1.12-1.1,2.36-1.22,3.66-2.37,26.89-.75,64.36-.05,92.03.13,5.1,2.45,44.14,1.33,55.38h-34.79l-.61-153.51Z"/>
    <path class="cls-1" d="M878.08,1033.4c.8.12,1.82-.02,2.47.53,2.04,1.72,1.29,28.51,1.18,33.58-.05,2.43.04,4.88,0,7.31,0,.22-1.28,1.91-1.31,4.12-.33,22.17.43,44.39.09,66.54h-34.11v-110.87c6.43-1.71,24.95-2.25,31.68-1.22Z"/>
    <path class="cls-1" d="M858.26,983.73c16.86-3.45,29.3,5.97,27.16,23.51-1.96,16.07-28.16,20.32-38.42,6.69-7.64-10.14-.96-27.7,11.27-30.2Z"/>
    <g>
      <path class="cls-5" d="M215.3,985.89v8.53c0,47.09-.27,94.24,0,141.33v2.44c.02,1.22,0,2.44,0,3.66v4.87c-.47.78-.51,1.84-1.72,1.95-10.29-1.8-20.85-.04-31.18-.73-2.73-.18-2.58-.26-4.87-1.22l.17-162.48c.41-1.58,1.49-1.74,2.87-2,3.21-.59,32.16-.31,33.59.58,1.2.75.8,2.25,1.14,3.08Z"/>
      <path class="cls-2" d="M215.3,994.42v-8.53c1.06,2.62,2.81,6.05,0,8.53Z"/>
      <path class="cls-2" d="M215.3,1138.18v-2.44c0,.65,0,1.86,0,2.44Z"/>
    </g>
    <g>
      <path class="cls-1" d="M893.92,1034.62c.26-.02,1.34-1.23,2.95-1.27,4.7-.1,9.43.17,14.11.06l1.21-29.25h33.5c3.97,0,.77,25.46.6,29.24,4.8.63,28.36-1.42,30.29,1.41.53,1.52.1,3.12.17,4.67.27,5.87-.48,16.47-2.44,21.93-4.4,2.9-26.29-2.74-28.02,2.44-.77,2.31.07,12.22,0,15.84-.16,8.71.38,17.54.07,26.25-.08,2.15-1.42,5.04-1.34,5.95.12,1.24,2.36.53,2.49.7,2.16,2.79,2.65,6.26,7.98,7.25s19.72-3.18,21.12-1c1.14,1.77-1.05,6.17-.82,8.71.19,2.02,2,4.1,2.11,6.45.06,1.17-1.39,11.05-1.7,11.54-.99,1.56-11.06,3.36-13.47,3.58-18.14,1.66-40.4-1.01-48.34-19.85-5.79-13.74-3.68-45.18-3.48-61.22.05-4.15,3.11-6.09-2.92-6.68-4.17-.41-6.8-.13-10.42,1.27h-2.44c-3.09-3.51-.23-22.24-1.22-28.02Z"/>
      <path class="cls-4" d="M974.33,1061.43c-.24.66.74,2.29-.73,2.5l-27.29-.06c1.73-5.18,23.62.46,28.02-2.44Z"/>
      <path class="cls-4" d="M947.53,1112.6c-.13-.17-2.37.54-2.49-.7-.09-.91,1.26-3.79,1.34-5.95.31-8.71-.23-17.54-.07-26.25,2.79,10.34.47,22.19,1.22,32.9Z"/>
    </g>
    <g>
      <path class="cls-5" d="M393.18,1054.12c-.61-4.49-.76-22.02,0-26.19.19-1.01.97-3.05,1.83-3.05h17.67v-29.85c0-.13,1.7-1.83,1.83-1.83h34.11c.13,0,1.83,1.7,1.83,1.83v29.85c4.83,3.19,32.9-3.6,32.9,3.05v27.41c-1.2-.4-2.64,1.22-3.05,1.22h-29.85v49.34c0,7.34,9.72,12.86,16.44,12.89,4.09.02,8.36-2.02,12.38-2.42,1.91-.19,3.68,1.14,4.08,1.11-.95,2.59,1.07,5.54,1.22,7.31.44,5.32.7,10.76,1.22,15.84.72,7.08-4.85,7-10.69,8.2-24.11,4.93-54.38-.46-61.19-27.69-1.99-7.94-1.04-16.25-1.22-24.37-.02-.81.02-1.63,0-2.44-.1-4.86.05-9.76,0-14.62-.02-2.03.04-4.06,0-6.09-.06-3.42.97-16.12-1.22-17.06-.54-.23-1.71.18-2.44,0-5.35-1.34-9.01.48-14.62,0-1.1-.95-1.02-1.01-1.22-2.44Z"/>
      <path class="cls-4" d="M409.02,1056.55c-2.61,1.97-12.19,2.1-14.62,0,5.61.48,9.27-1.34,14.62,0Z"/>
    </g>
    <g>
      <path class="cls-5" d="M42.3,981.01c29.94,1.76,59.14.69,88.94,0,4.97-.12,11-.42,15.84,0,1.74.15,5.07.48,6.42,1.24s.73,2.25.89,2.41v29.24c-.32.23-.55,1.59-1.27,1.8l-79.14.64v34.72c0,.13,1.7,1.83,1.83,1.83h68.23c.13,0,1.83,1.7,1.83,1.83v29.24c0,.13-1.7,1.83-1.83,1.83h-68.23c-.13,0-1.83,1.7-1.83,1.83v60.31h-38.99c-.15-41.4.19-82.87,0-124.27,0-.81,0-1.62,0-2.44-.02-4.44-1.18-8.79-1.22-12.18-.04-4.13.19-27.3,3.29-28.07,1.19-.3,3.77-.04,5.24.05Z"/>
      <path class="cls-4" d="M154.39,984.67c.14.16,1.66-.36,2.16.22.92,1.07.83,26.21.33,28.25-.36,1.47-2.17.55-2.48.77v-29.24Z"/>
    </g>
  </g>
  <g>
    <path class="cls-1" d="M743.73,484.52c4.31-1.79,9.91,5.29,10.51,5.43,2.07.47,6.24-.49,7.22.02,39.1,20.41,81.85,46.92,123.62,63.9,22.89,9.31,31.75.61,40.67-20.31,7.34-17.21,7.42-43.24,30.73-47.68,1.17-.22,2.77.07,4.09,0,22.71-1.23,36.35,12.33,36.84,34.83.14,6.1-1.51,11.75-1.39,18.36.03,1.36-.1,2.75,0,4.09.09,2.37-1.03,4.57-1.36,6.82-5.73,38.64-16.21,76.39-36.79,109.81-29.62,48.11-86.03,101.71-147.32,78.39,8.12-33.45,14.32-67.49,22.51-100.95,3.04-4.53,23.4,10.25,27.34-2.63,4.67-15.28-2.19-36.93-15.07-46.43-15.94-11.76-89.12-24.74-112.91-30.34-2.06-.48-3.45-2.33-3.69-2.39,8.86-21.73,13.93-47.38,15-70.92Z"/>
    <path class="cls-5" d="M533.71,389.05c2.29,5.38,6.52,9.04,9.35,14.52,2.09,4.03,3.89,8.05,4.42,12.62,12.65,2.32,43.58-7.16,43.53,13.1-.05,21.81-27.27,13.99-41.03,16.27-7.71,42.81-38.39,62.12-79.72,64.87-2.03.14-3.94-1.04-3.37,2.03l84.54,84.57c5.18,8.09,3.87,13.55-6.08,14.38-7.38.61-24.5.95-31.49,0-1.89-.26-3.48-.57-4.94-1.88l-96.63-95.66c-8.78-6.62-9.84-27.97,1.32-31.47,8.64-2.71,29.67.1,40.29-.63,22.72-1.56,49.6-10.39,51.16-36.81h-90.69c-8.03,0-12.12-18.3-6.2-24.91.72-.8,5.83-3.73,6.2-3.73h87.96c-6.44-20.99-33.31-26.08-52.52-27.26-10.45-.65-22.73,1.2-32.75.02-13.56-1.6-18.07-22.2-4.81-28.06l169.78-.52c9.43,1.49,10.94,13.8,6.23,21.06-.98,1.51-7.63,7.5-8.87,7.5h-45.69Z"/>
    <path class="cls-1" d="M882.84,772.28c.2.13.13.87,2.73,2.73,4.98,3.56,13.68,12.27,17.69,17.09,4.39,5.27,10.52,18.13,13.68,21.1l1.36,2.73c.02,2.78,2.24,6.36,2.73,9.55,2.63,17.18,3.2,27.82,0,45-.58,3.12-.19,5.92-1.36,9.55-2.12,6.55-10.04,20.21-14.43,25.8-36.27,46.13-106.1,45.24-141.04-1.25,14.63-44.69,27.96-93.46,39.55-139.11,9.43-2.94,20.79-5.31,30.68-5.57,12.65-.33,37.83,5.5,48.41,12.39Z"/>
    <path class="cls-1" d="M514.61,735.46c4.51-2.35,8.49.35,12.91.08,6.24-.38,14.1-6.53,18.6,1.95l-31.51,97.53c2.37-27.5,0-61.71,0-90.01v-9.55Z"/>
    <g>
      <path class="cls-1" d="M258.22,147.66c44.38-42.02,106.03-70.54,168.37-72.34,18.98-.55,45.41-1.61,49.51,22.88,4.07,24.36-.41,66.58-1.1,92.36-.37,13.81.52,27.71-.09,41.51-75.9,8.84-143.48,46.99-185.35,111.26-21.49,33-32.88,65.21-38.16,104.36-5.93-1.15-11.82-4.09-17.29-6.58-39.93-18.18-80.68-39.6-120.9-56.4-17.25-7.2-31.04-12.51-42.39,7.18-12.88,22.35-4.7,63.78-42.37,61.25-5.52-.37-15.83-4.35-19.81-8.18-12.23-11.79-8.48-39.32-6.62-55.04,7.46-63.18,39.68-132.31,93.48-168.37,12.05-8.07,24.29-13.73,38.61-16.62,4.55.47,9.47-.48,14.15.18,6.47.91,35.85,9.31,37.72,8.8,4.43-1.22,21.49-15.3,25.89-19.18,16.21-14.3,31.64-33.14,46.35-47.07Z"/>
      <path class="cls-6" d="M742.37,446.33c-6.17-54.08-33.51-108.84-72.93-145.96s-95.43-63.46-152.09-68.17c.58-30.2-.8-60.53-.07-90.74.32-13.14.02-32.63,1.42-44.95,1.18-10.32,8.31-12.28,14-19.46,24.08-1.42,46.71-.14,70.3,4.71,26.97,5.54,49.63,13.91,73.89,27.71,3.42,1.95,6.48,5.82,10.91,5.46,2.09,4.28,12.08,8.96,16.37,12.27,2.54,1.97,4.34,7.12,9.55,6.82,4.12,5.95,9.23,7.69,12.27,10.91,12.84,13.56,25.27,28.77,39.53,41.61,5.4,4.86,30.43,25.98,35.44,27.36,2.6.72,19.55-6.04,24.52-6.99,18.74-3.61,37.09-1.35,54.62,6.21,41.02,17.68,81.74,73.37,96.83,114.56,6.61,18.06,13.07,38.98,16.21,58.11,2.2,13.36,6.12,40.22,2.24,52.4-6.42,20.16-35.78,26.77-51.18,13.6-9.66-8.26-12.06-26.5-15.73-38.2-1.46-4.66-1.23-3.49-3.37-8.17-4.94-10.84-10.38-23.93-23.98-25.79-14.43-1.97-38.8,11.65-52.68,18-32.48,14.86-66.03,33.68-98.76,47.18-2.47,1.02-4.54,1.97-7.33,1.53Z"/>
      <path class="cls-6" d="M731.2,75.04c1.97-24.85,24.44-53.66,49.29-65.86,53.04-26.03,128.79,5.53,134.96,66.48.15,1.46,1.73,13.35,1.62,17.41-.17,6.15-4.04,23.83-4.86,25.93-5.14,13.25-8.09,22.67-17.76,34.14-43.6,51.7-122.94,40.29-154.81-17.75-8.2-14.93-9.64-38.94-8.76-56.09,0-.12.33-4.27.33-4.27Z"/>
      <circle class="cls-1" cx="161.52" cy="94.96" r="92.9"/>
    </g>
    <g>
      <path class="cls-3" d="M15.47,616.81c-4.13-27.57-13.95-53.01-15.06-82.45-.86-22.77,3.86-47.31,32.1-47.22,38.69.12,23.97,56.35,50.23,68.53,7.96,3.69,11.31,2.53,19.15-.41,33.88-12.69,74.23-37.95,108.11-54.18,4.29-2.06,37.21-18.14,38.67-16.56,6.31,119.43,105.97,225.56,226.39,233.21.22,30.23-.27,60.5-.06,90.75.09,12.56,2.26,25.55,1.42,38.81-.03.45.03.91,0,1.36-.3,4.06-1.36,13.03-2.65,17.13-8.42,26.72-48.54,14.61-68.55,9.75-38.33-9.3-80.89-27.97-113.34-50.32-28.67-19.74-49.1-45.54-73.16-70.01-4.43-4.51-18.78-20.11-23.34-21.82-2.9-1.09-23.52,7.31-29.63,8.48-55.76,10.69-108.48-43.96-132.8-88.69l-17.5-36.37Z"/>
      <g>
        <path class="cls-3" d="M246.95,812c10.3,22.19,11.12,47.62,2.27,70.43-10.43,26.9-33.12,47.17-61.03,54.51s-57.63.87-79.95-17.42c-24.21-19.83-36.38-50.8-32.15-81.8,4.23-31,24.25-57.59,52.88-70.21.92-.41,1.85-.8,2.78-1.17l1.17-.46c44.22-17.04,94.09,3.12,114.03,46.12Z"/>
        <path class="cls-4" d="M132.92,765.88l-1.17.46c.39-.16.78-.31,1.17-.46Z"/>
      </g>
    </g>
    <g>
      <path class="cls-5" d="M728.73,555.44c.24.06,1.63,1.9,3.69,2.39,23.8,5.6,96.97,18.58,112.91,30.34,12.88,9.5,19.74,31.15,15.07,46.43-3.93,12.88-24.29-1.9-27.34,2.63-8.18,33.46-14.38,67.5-22.51,100.95-2.2,9.06-4.52,18.23-6.82,27.28-11.58,45.65-24.92,94.41-39.55,139.11-5.14,15.7-11.47,44.26-32.05,44.26-18.54,0-16.69-16.37-24.01-25.69-5.2-6.62-14.53,3.78-20.29,6.69-13.1,6.61-24.19,6.39-34.08-5.51-3.5-4.21-9.43-18.31-13.26-19.5-11.43-3.54-24.22,18.41-45.42,10-12.11-4.8-18.01-26.27-22.77-27.72-7.04-2.15-16.19,6.55-23.09,9.12-8.95,3.34-14.66,4.16-23.69.18-9.25-4.08-16.36-15.39-17.61-25.34-1.65-13.16,5.63-23.64,6.7-36.03l31.51-97.53c-4.5-8.47-12.36-2.33-18.6-1.95-4.42.27-8.4-2.43-12.91-.08v-17.73c9.35-.52,27.5-2.61,36.05-5.54,1.73-.6,3.27-.73,4.13-2.69,6.71-22.94,12.26-46.23,17.8-69.48,8.78-36.88,10.61-99.94,60-103.64,18.29-1.37,74.95,14.09,96.13,19.07ZM632.95,553.05c-9.48,1.12-18.35,6.65-24,14.22-11.51,15.44-19.68,72.72-25.18,94.83-11.24,45.21-25.17,89.89-38.79,134.41-5.31,17.37-13.27,36.07-17.42,53.49-2.41,10.11-3.08,29.66,12.21,28.61,11.43-.78,21-16.94,37.33-12.66s17.53,29.04,28.34,30.4c9.55,1.2,20.3-11.18,30.5-12.99,24.48-4.34,26.37,28.73,37.85,30.52,9.78,1.52,20.29-16.66,37.59-13.08,14.39,2.97,13.7,22.97,20.1,26.35,6.16,3.25,11.09-7.22,12.91-11.7,13.38-32.9,24.87-80.48,34.42-115.6,5.69-20.9,10.98-41.96,16.09-63.01,6.66-27.43,17.72-100.18,30.1-119.92,3.6-5.74,7.46-8.05,11.43-12.97l-5.46-5.5c-60.07-12.99-122.32-32.95-182.68-43.71-5.68-1.01-9.32-2.4-15.33-1.69Z"/>
      <path class="cls-4" d="M632.95,553.05c6.02-.71,9.65.68,15.33,1.69,60.36,10.76,122.61,30.72,182.68,43.71l5.46,5.5c-3.97,4.92-7.83,7.24-11.43,12.97-12.38,19.73-23.44,92.49-30.1,119.92-5.11,21.05-10.4,42.11-16.09,63.01-9.55,35.12-21.04,82.7-34.42,115.6-1.82,4.47-6.75,14.95-12.91,11.7-6.4-3.37-5.71-23.37-20.1-26.35-17.3-3.57-27.81,14.61-37.59,13.08-11.48-1.79-13.37-34.85-37.85-30.52-10.2,1.81-20.95,14.19-30.5,12.99-10.8-1.36-11.89-26.09-28.34-30.4s-25.9,11.87-37.33,12.66c-15.29,1.05-14.62-18.49-12.21-28.61,4.15-17.42,12.11-36.13,17.42-53.49,13.62-44.52,27.54-89.2,38.79-134.41,5.5-22.11,13.67-79.39,25.18-94.83,5.64-7.57,14.51-13.1,24-14.22ZM639.71,611.64c-9.07,2.03-7.12,15.51,1.41,17.08l122.77,28.73c11,1,17.47-12.47,2.72-17.84-35.7-13-82.56-15.68-119.38-27.92-2.5-.56-5.01-.61-7.52-.05ZM630.18,659.3c-9.52,3.14-10.8,14.57-.76,17.95l121.99,28.08c13.56,2.4,18.33-12.77,4.94-17.26l-126.16-28.77ZM616.52,708.44c-6.78,1.97-7.77,13.27.38,16.79,10.21,4.41,60.07,15.77,71.74,16.9,15.4,1.5,16.86-12.83,7.37-16.92-22.3-4.26-44.27-11.23-66.59-15.24-3.9-.7-9.14-2.62-12.9-1.53ZM724.64,792.75c1.81-1.37,21.79,7.08,17.53-5.93-.59-1.8-2.3-2.39-3.87-2.97-6.93-2.54-37.53-9.87-44.4-10.23-8.67-.45-11.83,6.38-4.61,10.16,8.33,4.36,20.84,1.2,24.43,13.75-5.32,1.59-34.96-11.91-32.52,1.17.87,4.67,21.47,7.49,26.58,8.88,1.34.37,4.34-.61,3.21,2.19-1.85,4.57-9.58,6.27-14.09,6.05-7.8-.39-21.53-9.93-18.33,5.92.7,3.46,19.72,31.87,23.08,35.59s17.88,7.79,17.37,1.76c-.33-3.86-20.41-27.74-23.02-33.6,8.33.28,18.47.79,24.57-6.13,1.68-1.91,2.61-6,4.06-6.94,2.8-1.8,8.87,3.44,12.41-1.14,7.41-9.6-6.84-8.15-9.37-10.66-1.33-1.32-1.58-5.91-3.03-7.87Z"/>
      <path class="cls-5" d="M630.18,659.3l126.16,28.77c13.4,4.5,8.62,19.66-4.94,17.26l-121.99-28.08c-10.04-3.38-8.75-14.81.76-17.95Z"/>
      <path class="cls-5" d="M639.71,611.64c2.51-.56,5.02-.51,7.52.05,36.82,12.24,83.68,14.92,119.38,27.92,14.75,5.37,8.28,18.84-2.72,17.84l-122.77-28.73c-8.53-1.57-10.49-15.06-1.41-17.08Z"/>
      <path class="cls-5" d="M724.64,792.75c1.45,1.96,1.7,6.55,3.03,7.87,2.54,2.51,16.78,1.06,9.37,10.66-3.54,4.58-9.6-.66-12.41,1.14-1.46.93-2.38,5.03-4.06,6.94-6.1,6.92-16.24,6.41-24.57,6.13,2.61,5.86,22.69,29.75,23.02,33.6.51,6.03-14.1,1.84-17.37-1.76s-22.39-32.12-23.08-35.59c-3.2-15.85,10.53-6.32,18.33-5.92,4.51.23,12.25-1.48,14.09-6.05,1.13-2.81-1.87-1.83-3.21-2.19-5.11-1.39-25.71-4.21-26.58-8.88-2.44-13.08,27.2.41,32.52-1.17-3.59-12.55-16.1-9.38-24.43-13.75-7.21-3.78-4.05-10.61,4.61-10.16,6.87.36,37.47,7.69,44.4,10.23,1.57.58,3.28,1.17,3.87,2.97,4.25,13.01-15.72,4.56-17.53,5.93Z"/>
      <path class="cls-5" d="M616.52,708.44c3.76-1.09,9,.83,12.9,1.53,22.32,4.02,44.29,10.98,66.59,15.24,9.49,4.09,8.03,18.42-7.37,16.92-11.67-1.14-61.53-12.49-71.74-16.9-8.15-3.52-7.16-14.82-.38-16.79Z"/>
    </g>
  </g>
</svg>