<?xml version="1.0" encoding="UTF-8"?>
<svg id="Layer_1" data-name="Layer 1" xmlns="http://www.w3.org/2000/svg" viewBox="0 0 774.95 942.4">
  <defs>
    <style>
      .cls-1 {
        fill: #0879fa;
      }

      .cls-2 {
        fill: #e8f0fc;
      }

      .cls-3 {
        fill: #fd8403;
      }

      .cls-4 {
        fill: #f9fcfc;
      }

      .cls-5 {
        fill: #061d58;
      }

      .cls-6 {
        fill: #05d59b;
      }
    </style>
  </defs>
  <path class="cls-1" d="M499,915.28c1.48.25,3.29.69,5,1,14.59,2.63,29.91,6.3,44.22,10.28,5,1.39,28.68,8.27,30.86,11.14,1.98,2.61,1.27,3.94-1.7,4.21-126.96-22.96-257.68-23.2-383.92.3-2.78.52-9.58.19-7.03-3.94s46.27-15.65,53.76-17.32c79.71-17.77,178.33-19.31,258.82-5.68Z"/>
  <g>
    <path class="cls-5" d="M172,795.28c15.11-26.82,56.03-34.49,77.5-11l.49-11h30.01c.83,2,.62,2.33,1,4.01-1.4,2.17-.93,4.61-1,7-.04,1.33.01,2.67,0,4-.25,24.42-.89,50.22-.04,74.54.09,2.7,1.83,7.16,1.04,9.46-.49,1.43-1.32.97-2.44,1.05-4.18.28-24.26.69-26.92-.18-3.29-1.08-.57-8.22-2.13-10.86-14.18,16.09-43.67,16.76-61.22,6.21-3.64-2.19-10.18-11.02-13.29-11.21l-5-8c-.07-5.51-3.01-9.26-4-14-1.53-7.32-1.26-15.67,0-23,1.02-5.89,3.09-11.84,6-17ZM250.2,823.12c0-14.98-12.14-27.12-27.12-27.12s-27.12,12.14-27.12,27.12,12.14,27.12,27.12,27.12,27.12-12.14,27.12-27.12Z"/>
    <path class="cls-1" d="M385,854.28c2.83-5.77,9.76-12.79,12.63-19.08,2.52-.41,11.31,6.65,14.68,8.27,10.67,5.12,43.66,11.97,47.28-4.13,2.2-9.78-6.45-12.77-13.83-15.32-22.79-7.86-59.27-9.76-58.66-43.13.77-42.05,58.15-46.02,87.58-31.8,3.33,1.61,12.26,6.04,10.91,10.2-.41,1.26-11.15,18.82-12.26,19.05-2.92.61-9.42-4.82-12.65-6.26-10.05-4.5-34.54-9.25-41.11,2.28-6.17,10.82,5.78,15.22,13.9,17.93,16.64,5.56,43.63,8.08,53.52,24.98,6.03,10.3,4.31,29.27-2.56,38.94-20.08,28.22-75.83,21.42-100.36,1.93-.26-.38.61-3.23.92-3.87Z"/>
    <path class="cls-1" d="M605,803.28c.51,1.22,2.81,8.81,3,10,.1.62-.06,1.35,0,2,.93,10.15.13,14.93-2,24-.13.54.04,1.35,0,2-8.89,25.45-38.58,37.93-63.04,26.54l-10.96-7.54v38.5c0,1.1-2.44,1.43-3.45,1.55-7.56.89-16.79-.75-24.55-.05.02-.33,0-.67,0-1s0-.67,0-1c.76-38.77-.54-77.72-.05-116.55-.22-1.02.72-3.45,1.55-3.45h26.5c.5,0-.76,8.8.5,10,21.23-23.2,60.98-12.91,72.5,15ZM580.28,824.27c0-13.38-10.84-24.22-24.22-24.22s-24.22,10.84-24.22,24.22,10.84,24.22,24.22,24.22,24.22-10.84,24.22-24.22Z"/>
    <path class="cls-1" d="M621,745.28c4.02.65,27.44-.96,28.83.22.46.4.05,1.69.17,1.78-.52.92-.91,1.93-1,3-1.95,22.07-.61,52.83-.04,75.54.11,4.19,2.01,36.23,1.09,45.46h-28.55l-.5-126Z"/>
    <path class="cls-1" d="M693,779.28c.65.1,1.5-.02,2.03.43,1.67,1.41,1.06,23.4.97,27.57-.04,2,.03,4,0,6,0,.18-1.05,1.57-1.07,3.38-.27,18.19.35,36.44.07,54.62h-28v-91c5.28-1.4,20.47-1.84,26-1Z"/>
    <path class="cls-1" d="M676.73,738.5c13.84-2.83,24.05,4.9,22.29,19.3-1.61,13.19-23.11,16.68-31.54,5.49-6.27-8.32-.79-22.73,9.25-24.79Z"/>
    <g>
      <path class="cls-5" d="M149,740.28v7c0,38.65-.22,77.35,0,116v2c.02,1,0,2,0,3v4c-.39.64-.42,1.51-1.41,1.6-8.45-1.48-17.12-.03-25.59-.6-2.24-.15-2.12-.21-4-1l.14-133.36c.33-1.3,1.22-1.43,2.36-1.64,2.63-.49,26.4-.26,27.57.48.98.61.65,1.84.93,2.53Z"/>
      <path class="cls-2" d="M149,747.28v-7c.87,2.15,2.31,4.96,0,7Z"/>
      <path class="cls-2" d="M149,865.28v-2c0,.54,0,1.53,0,2Z"/>
    </g>
    <g>
      <path class="cls-1" d="M706,780.28c.22-.02,1.1-1.01,2.42-1.04,3.86-.08,7.74.14,11.59.05l.99-24.01h27.5c3.26,0,.63,20.9.5,24,3.94.52,23.28-1.16,24.86,1.16.43,1.25.08,2.56.14,3.84.22,4.82-.39,13.52-2,18-3.61,2.38-21.58-2.25-23,2-.64,1.9.05,10.03,0,13-.13,7.15.31,14.4.05,21.55-.06,1.77-1.17,4.13-1.1,4.88.1,1.02,1.94.44,2.04.57,1.77,2.29,2.17,5.14,6.55,5.95s16.18-2.61,17.33-.82c.93,1.45-.86,5.07-.67,7.15.15,1.66,1.64,3.36,1.74,5.3.05.96-1.14,9.07-1.4,9.47-.81,1.28-9.07,2.76-11.06,2.94-14.89,1.36-33.16-.83-39.67-16.29-4.75-11.28-3.02-37.08-2.86-50.25.04-3.41,2.55-5-2.4-5.49-3.43-.34-5.58-.11-8.56,1.05h-2c-2.54-2.88-.19-18.25-1-23Z"/>
      <path class="cls-4" d="M772,802.28c-.19.54.61,1.88-.6,2.05l-22.4-.05c1.42-4.25,19.39.38,23-2Z"/>
      <path class="cls-4" d="M750,844.28c-.11-.14-1.95.45-2.04-.57-.07-.75,1.04-3.11,1.1-4.88.26-7.15-.19-14.39-.05-21.55,2.29,8.49.38,18.22,1,27Z"/>
    </g>
    <g>
      <path class="cls-5" d="M295,796.28c-.5-3.68-.63-18.07,0-21.5.15-.83.8-2.5,1.5-2.5h14.5v-24.5c0-.11,1.39-1.5,1.5-1.5h28c.11,0,1.5,1.39,1.5,1.5v24.5c3.96,2.62,27-2.96,27,2.5v22.5c-.98-.32-2.17,1-2.5,1h-24.5v40.5c0,6.02,7.98,10.55,13.5,10.58,3.36.01,6.86-1.66,10.16-1.99,1.57-.16,3.02.94,3.34.91-.78,2.13.88,4.55,1,6,.36,4.37.58,8.83,1,13,.59,5.81-3.98,5.75-8.77,6.73-19.79,4.04-44.64-.38-50.23-22.73-1.63-6.52-.85-13.33-1-20-.01-.67.01-1.33,0-2-.08-3.99.04-8.01,0-12-.02-1.67.03-3.33,0-5-.05-2.8.8-13.23-1-14-.44-.19-1.4.15-2,0-4.39-1.1-7.39.4-12,0-.9-.78-.84-.83-1-2Z"/>
      <path class="cls-4" d="M308,798.28c-2.14,1.61-10.01,1.73-12,0,4.61.4,7.61-1.1,12,0Z"/>
    </g>
    <g>
      <path class="cls-5" d="M7,736.28c24.57,1.44,48.54.57,73,0,4.08-.1,9.03-.34,13,0,1.43.12,4.16.39,5.27,1.02s.6,1.84.73,1.98v24c-.27.18-.45,1.3-1.04,1.48l-64.96.52v28.5c0,.11,1.39,1.5,1.5,1.5h56c.11,0,1.5,1.39,1.5,1.5v24c0,.11-1.39,1.5-1.5,1.5h-56c-.11,0-1.5,1.39-1.5,1.5v49.5H1c-.12-33.98.16-68.02,0-102,0-.67,0-1.33,0-2-.02-3.64-.97-7.22-1-10-.03-3.39.16-22.41,2.7-23.04.98-.24,3.1-.03,4.3.04Z"/>
      <path class="cls-4" d="M99,739.28c.12.13,1.36-.29,1.77.18.76.88.68,21.51.27,23.18-.3,1.21-1.78.45-2.04.63v-24Z"/>
    </g>
  </g>
  <g>
    <path class="cls-1" d="M560,355.28c3.16-1.31,7.26,3.88,7.7,3.98,1.52.35,4.58-.36,5.3.02,28.67,14.96,60.02,34.4,90.64,46.86,16.78,6.82,23.28.44,29.82-14.89,5.38-12.62,5.44-31.71,22.53-34.97.86-.16,2.03.05,3,0,16.65-.9,26.65,9.04,27.02,25.54.1,4.47-1.11,8.62-1.02,13.46.02.99-.07,2.01,0,3,.07,1.74-.76,3.35-1,5-4.2,28.34-11.89,56.01-26.98,80.52-21.72,35.28-63.08,74.58-108.02,57.48,5.96-24.53,10.5-49.49,16.5-74.02,2.23-3.32,17.16,7.52,20.05-1.93,3.42-11.2-1.61-27.08-11.05-34.05-11.69-8.62-65.35-18.14-82.79-22.25-1.51-.36-2.53-1.71-2.7-1.75,6.5-15.94,10.22-34.74,11-52Z"/>
    <path class="cls-5" d="M406,285.28c1.68,3.95,4.78,6.63,6.86,10.64,1.53,2.96,2.85,5.9,3.24,9.26,9.28,1.7,31.96-5.25,31.92,9.6-.04,15.99-20,10.26-30.08,11.93-5.66,31.39-28.15,45.55-58.45,47.56-1.49.1-2.89-.76-2.47,1.49l61.99,62.01c3.8,5.93,2.84,9.94-4.46,10.54-5.41.45-17.97.7-23.09,0-1.38-.19-2.55-.42-3.62-1.38l-70.86-70.14c-6.43-4.85-7.22-20.51.97-23.07,6.34-1.98,21.75.08,29.54-.46,16.66-1.14,36.37-7.61,37.51-26.99h-66.5c-5.89,0-8.89-13.42-4.54-18.27.53-.59,4.28-2.73,4.54-2.73h64.5c-4.73-15.39-24.42-19.12-38.51-19.99-7.66-.47-16.67.88-24.01.01-9.94-1.17-13.25-16.28-3.53-20.57l124.49-.38c6.91,1.09,8.02,10.12,4.57,15.44-.72,1.11-5.59,5.5-6.5,5.5h-33.5Z"/>
    <path class="cls-1" d="M662,566.28c.14.09.1.64,2,2,3.65,2.61,10.03,8.99,12.97,12.53,3.22,3.87,7.71,13.29,10.03,15.47l1,2c.02,2.04,1.64,4.67,2,7,1.93,12.6,2.35,20.4,0,33-.43,2.29-.14,4.34-1,7-1.56,4.81-7.36,14.82-10.58,18.92-26.59,33.83-77.8,33.17-103.42-.92,10.73-32.77,20.51-68.53,29-102,6.91-2.15,15.24-3.89,22.5-4.08,9.27-.24,27.74,4.03,35.5,9.08Z"/>
    <path class="cls-1" d="M392,539.28c3.31-1.72,6.23.25,9.47.06,4.57-.28,10.34-4.78,13.64,1.43l-23.1,71.51c1.73-20.17,0-45.25,0-66v-7Z"/>
    <g>
      <path class="cls-1" d="M204,108.28c32.54-30.81,77.75-51.72,123.46-53.04,13.92-.4,33.3-1.18,36.3,16.78,2.99,17.86-.3,48.82-.8,67.72-.27,10.13.38,20.32-.07,30.44-55.65,6.49-105.21,34.45-135.91,81.58-15.76,24.19-24.11,47.82-27.98,76.52-4.35-.85-8.67-3-12.68-4.82-29.28-13.33-59.16-29.04-88.65-41.35-12.65-5.28-22.76-9.17-31.09,5.27-9.45,16.39-3.45,46.77-31.07,44.91-4.05-.27-11.61-3.19-14.52-6-8.96-8.64-6.22-28.83-4.86-40.36,5.47-46.33,29.09-97.02,68.54-123.46,8.83-5.92,17.81-10.07,28.31-12.19,3.33.35,6.94-.35,10.37.13,4.74.67,26.29,6.83,27.66,6.45,3.25-.9,15.76-11.22,18.99-14.07,11.89-10.48,23.2-24.3,33.99-34.51Z"/>
      <path class="cls-6" d="M559,327.28c-4.53-39.66-24.57-79.8-53.47-107.03-30.17-28.42-69.98-46.53-111.52-49.98.43-22.14-.59-44.39-.05-66.53.23-9.64.01-23.93,1.04-32.96.86-7.57,6.09-9,10.27-14.27,17.65-1.04,34.25-.11,51.55,3.45,19.78,4.07,36.39,10.2,54.18,20.32,2.51,1.43,4.75,4.27,8,4,1.53,3.14,8.86,6.57,12,9,1.86,1.44,3.19,5.22,7,5,3.02,4.36,6.77,5.64,9,8,9.41,9.94,18.53,21.1,28.99,30.51,3.96,3.56,22.31,19.05,25.98,20.06,1.91.53,14.33-4.43,17.98-5.13,13.74-2.65,27.2-.99,40.05,4.55,30.08,12.96,59.94,53.8,71,84,4.85,13.24,9.58,28.58,11.89,42.61,1.61,9.79,4.48,29.49,1.64,38.42-4.71,14.78-26.24,19.63-37.53,9.97-7.08-6.06-8.84-19.43-11.53-28.01-1.07-3.42-.9-2.56-2.47-5.99-3.63-7.95-7.61-17.55-17.59-18.91-10.58-1.44-28.45,8.54-38.63,13.2-23.81,10.9-48.42,24.7-72.42,34.59-1.81.75-3.33,1.45-5.37,1.12Z"/>
      <path class="cls-6" d="M550.82,55.02c1.45-18.22,17.92-39.35,36.14-48.29,38.89-19.09,94.44,4.06,98.96,48.75.11,1.07,1.27,9.79,1.18,12.77-.13,4.51-2.96,17.47-3.56,19.01-3.77,9.72-5.94,16.63-13.03,25.03-31.97,37.91-90.15,29.54-113.51-13.01-6.01-10.95-7.07-28.55-6.42-41.12,0-.09.24-3.13.24-3.13Z"/>
      <circle class="cls-1" cx="133.1" cy="69.63" r="68.12"/>
    </g>
    <g>
      <path class="cls-3" d="M26,452.28c-3.03-20.22-10.23-38.87-11.04-60.46-.63-16.7,2.83-34.69,23.54-34.62,28.37.09,17.58,41.32,36.83,50.25,5.83,2.71,8.29,1.86,14.04-.3,24.84-9.31,54.43-27.83,79.27-39.73,3.14-1.51,27.29-13.3,28.35-12.14,4.63,87.57,77.7,165.39,166,171,.16,22.17-.2,44.37-.04,66.54.07,9.21,1.66,18.73,1.04,28.46-.02.33.02.67,0,1-.22,2.98-.99,9.56-1.94,12.56-6.18,19.59-35.59,10.71-50.27,7.15-28.11-6.82-59.31-20.51-83.11-36.89-21.02-14.48-36-33.39-53.64-51.33-3.25-3.31-13.77-14.74-17.11-16-2.12-.8-17.25,5.36-21.73,6.22-40.89,7.84-79.54-32.24-97.37-65.03l-12.83-26.67Z"/>
      <g>
        <path class="cls-3" d="M195.74,595.4c7.55,16.27,8.15,34.92,1.67,51.64-7.65,19.73-24.29,34.59-44.75,39.97-20.46,5.38-42.26.63-58.63-12.77-17.75-14.54-26.68-37.25-23.58-59.98s17.78-42.23,38.77-51.48c.67-.3,1.35-.58,2.04-.86l.86-.34c32.43-12.5,68.99,2.29,83.61,33.82Z"/>
        <path class="cls-4" d="M112.12,561.58l-.86.34c.29-.11.57-.23.86-.34Z"/>
      </g>
    </g>
    <g>
      <path class="cls-5" d="M549,407.28c.18.04,1.19,1.4,2.7,1.75,17.45,4.11,71.11,13.63,82.79,22.25,9.44,6.97,14.47,22.84,11.05,34.05-2.88,9.44-17.81-1.39-20.05,1.93-6,24.54-10.55,49.49-16.5,74.02-1.61,6.64-3.32,13.37-5,20-8.49,33.47-18.27,69.23-29,102-3.77,11.51-8.41,32.46-23.5,32.45-13.6,0-12.24-12-17.61-18.84-3.81-4.86-10.65,2.77-14.88,4.9-9.6,4.84-17.73,4.69-24.99-4.04-2.57-3.09-6.91-13.43-9.72-14.3-8.38-2.59-17.76,13.5-33.3,7.33-8.88-3.52-13.21-19.26-16.7-20.33-5.16-1.58-11.87,4.8-16.93,6.69-6.56,2.45-10.75,3.05-17.37.13s-12-11.28-12.91-18.58c-1.21-9.65,4.13-17.34,4.91-26.42l23.1-71.51c-3.3-6.21-9.06-1.7-13.64-1.43-3.24.2-6.16-1.78-9.47-.06v-13c6.86-.38,20.16-1.91,26.43-4.07,1.27-.44,2.4-.54,3.03-1.97,4.92-16.82,8.99-33.9,13.05-50.95,6.44-27.04,7.78-73.28,44-75.99,13.41-1,54.96,10.33,70.49,13.98ZM478.77,405.52c-6.95.82-13.46,4.87-17.59,10.42-8.44,11.32-14.43,53.32-18.46,69.54-8.25,33.15-18.45,65.91-28.44,98.56-3.9,12.73-9.73,26.45-12.78,39.22-1.77,7.41-2.26,21.75,8.95,20.98,8.38-.58,15.4-12.42,27.38-9.28s12.86,21.3,20.78,22.29c7,.88,14.88-8.2,22.37-9.53,17.95-3.18,19.33,21.06,27.75,22.38,7.17,1.12,14.88-12.21,27.56-9.59,10.55,2.18,10.04,16.85,14.74,19.32,4.52,2.38,8.13-5.3,9.47-8.58,9.81-24.12,18.23-59.01,25.24-84.76,4.17-15.32,8.05-30.77,11.8-46.2,4.88-20.11,12.99-73.46,22.07-87.93,2.64-4.21,5.47-5.9,8.38-9.51l-4-4.03c-44.04-9.52-89.69-24.16-133.95-32.05-4.17-.74-6.83-1.76-11.24-1.24Z"/>
      <path class="cls-4" d="M478.77,405.52c4.41-.52,7.08.5,11.24,1.24,44.26,7.89,89.91,22.53,133.95,32.05l4,4.03c-2.91,3.61-5.74,5.31-8.38,9.51-9.07,14.47-17.19,67.82-22.07,87.93-3.75,15.44-7.63,30.88-11.8,46.2-7.01,25.75-15.43,60.64-25.24,84.76-1.33,3.28-4.95,10.96-9.47,8.58-4.69-2.47-4.19-17.14-14.74-19.32-12.68-2.62-20.39,10.71-27.56,9.59-8.42-1.31-9.8-25.56-27.75-22.38-7.48,1.33-15.36,10.41-22.37,9.53-7.92-.99-8.72-19.13-20.78-22.29s-18.99,8.71-27.38,9.28c-11.21.77-10.72-13.56-8.95-20.98,3.04-12.78,8.88-26.49,12.78-39.22,9.99-32.65,20.2-65.41,28.44-98.56,4.03-16.22,10.02-58.21,18.46-69.54,4.14-5.55,10.64-9.6,17.59-10.42ZM483.73,448.49c-6.65,1.49-5.22,11.37,1.04,12.53l90.02,21.07c8.07.73,12.81-9.15,1.99-13.08-26.18-9.53-60.54-11.5-87.54-20.47-1.84-.41-3.67-.45-5.52-.04ZM476.74,483.44c-6.98,2.3-7.92,10.69-.56,13.16l89.45,20.59c9.94,1.76,13.44-9.36,3.62-12.66l-92.51-21.1ZM466.73,519.46c-4.97,1.44-5.7,9.73.28,12.31,7.48,3.23,44.05,11.56,52.6,12.4,11.29,1.1,12.37-9.4,5.4-12.41-16.35-3.12-32.46-8.23-48.82-11.18-2.86-.51-6.7-1.92-9.46-1.12ZM546,581.29c1.33-1,15.97,5.19,12.85-4.35-.43-1.32-1.68-1.76-2.84-2.18-5.08-1.87-27.52-7.24-32.55-7.5-6.36-.33-8.67,4.68-3.38,7.45,6.11,3.2,15.28.88,17.91,10.08-3.9,1.16-25.63-8.73-23.85.86.64,3.42,15.74,5.49,19.49,6.51.98.27,3.18-.45,2.35,1.61-1.35,3.35-7.03,4.6-10.33,4.43-5.72-.29-15.78-7.28-13.44,4.34.51,2.54,14.46,23.37,16.93,26.09s13.11,5.71,12.74,1.29c-.24-2.83-14.96-20.34-16.88-24.64,6.11.21,13.55.58,18.02-4.49,1.23-1.4,1.91-4.4,2.98-5.09,2.06-1.32,6.5,2.52,9.1-.84,5.43-7.04-5.01-5.97-6.87-7.81-.97-.96-1.16-4.33-2.22-5.77Z"/>
      <path class="cls-5" d="M476.74,483.44l92.51,21.1c9.82,3.3,6.32,14.42-3.62,12.66l-89.45-20.59c-7.36-2.48-6.42-10.86.56-13.16Z"/>
      <path class="cls-5" d="M483.73,448.49c1.84-.41,3.68-.37,5.52.04,27,8.97,61.36,10.94,87.54,20.47,10.81,3.94,6.07,13.82-1.99,13.08l-90.02-21.07c-6.26-1.15-7.69-11.04-1.04-12.53Z"/>
      <path class="cls-5" d="M546,581.29c1.06,1.44,1.25,4.8,2.22,5.77,1.86,1.84,12.31.78,6.87,7.81-2.6,3.36-7.04-.48-9.1.84-1.07.68-1.75,3.69-2.98,5.09-4.47,5.08-11.91,4.7-18.02,4.49,1.92,4.3,16.64,21.81,16.88,24.64.37,4.42-10.34,1.35-12.74-1.29s-16.41-23.55-16.93-26.09c-2.34-11.63,7.72-4.63,13.44-4.34,3.31.17,8.98-1.08,10.33-4.43.83-2.06-1.37-1.34-2.35-1.61-3.75-1.02-18.85-3.09-19.49-6.51-1.79-9.59,19.94.3,23.85-.86-2.63-9.2-11.8-6.88-17.91-10.08-5.29-2.77-2.97-7.78,3.38-7.45,5.04.26,27.47,5.64,32.55,7.5,1.15.42,2.41.86,2.84,2.18,3.12,9.54-11.53,3.35-12.85,4.35Z"/>
      <path class="cls-5" d="M466.73,519.46c2.76-.8,6.6.61,9.46,1.12,16.36,2.95,32.47,8.05,48.82,11.18,6.96,3,5.89,13.51-5.4,12.41-8.56-.84-45.12-9.16-52.6-12.4-5.97-2.58-5.25-10.87-.28-12.31Z"/>
    </g>
  </g>
</svg>